<svg width="16" height="16" viewBox="0 0 16 16" fill="none" xmlns="http://www.w3.org/2000/svg">
    <path d="M12.2002 3.80665C11.9402 3.54665 11.5202 3.54665 11.2602 3.80665L8.00023 7.05998L4.74022 3.79998C4.48022 3.53998 4.06022 3.53998 3.80022 3.79998C3.54022 4.05998 3.54022 4.47998 3.80022 4.73998L7.06023 7.99998L3.80022 11.26C3.54022 11.52 3.54022 11.94 3.80022 12.2C4.06022 12.46 4.48022 12.46 4.74022 12.2L8.00023 8.93998L11.2602 12.2C11.5202 12.46 11.9402 12.46 12.2002 12.2C12.4602 11.94 12.4602 11.52 12.2002 11.26L8.94022 7.99998L12.2002 4.73998C12.4536 4.48665 12.4536 4.05998 12.2002 3.80665Z"
          fill="#656580"/>
</svg>
